<?xml version="1.0" ?><svg data-name="filled outline" id="filled_outline" viewBox="0 0 64 64" xmlns="http://www.w3.org/2000/svg"><defs><style>.cls-1{fill:#ffc933;stroke:#373737;stroke-linecap:round;stroke-linejoin:round;stroke-width:2px;}.cls-2{fill:#ffa70b;}.cls-3{fill:#ff9006;}.cls-4{fill:#373737;}</style></defs><title/><path class="cls-1" d="M49.9481,32a8.955,8.955,0,0,0,3.7356-5.1706L56.2487,18,47.32,15.8066a8.9555,8.9555,0,0,0-6.3457.65,8.9553,8.9553,0,0,0-2.61-5.82L32,4l-6.364,6.636a8.9558,8.9558,0,0,0-2.61,5.82,8.9553,8.9553,0,0,0-6.3456-.65L7.7513,18l2.565,8.8293A8.9554,8.9554,0,0,0,14.0519,32a8.9556,8.9556,0,0,0-3.7356,5.1707L7.7513,46l8.929,2.1934a8.9553,8.9553,0,0,0,6.3456-.65,8.9558,8.9558,0,0,0,2.61,5.82L32,60l6.364-6.636a8.9553,8.9553,0,0,0,2.61-5.82,8.9555,8.9555,0,0,0,6.3457.65L56.2487,46l-2.565-8.8294A8.9552,8.9552,0,0,0,49.9481,32Z"/><path class="cls-2" d="M41.9,22.1005A14,14,0,1,0,46,32,14.0146,14.0146,0,0,0,41.9,22.1005Z"/><circle class="cls-3" cx="32" cy="32" r="2"/><circle class="cls-3" cx="35" cy="27" r="2"/><circle class="cls-3" cx="32" cy="22" r="2"/><circle class="cls-3" cx="32" cy="42" r="2"/><circle class="cls-3" cx="32" cy="22" r="2"/><circle class="cls-3" cx="32" cy="42" r="2"/><circle class="cls-3" cx="40.6603" cy="27" r="2"/><circle class="cls-3" cx="23.3397" cy="37" r="2"/><circle class="cls-3" cx="40.6603" cy="37" r="2"/><circle class="cls-3" cx="23.3397" cy="27" r="2"/><circle class="cls-3" cx="35" cy="37" r="2"/><circle class="cls-3" cx="38" cy="32" r="2"/><circle class="cls-3" cx="26" cy="32" r="2"/><circle class="cls-3" cx="29" cy="27" r="2"/><circle class="cls-3" cx="29" cy="37" r="2"/><circle class="cls-4" cx="39" cy="19.8756" r="1"/><circle class="cls-4" cx="35.6235" cy="18.477" r="1"/><circle class="cls-4" cx="32" cy="18" r="1"/><circle class="cls-4" cx="28.3765" cy="18.477" r="1"/><circle class="cls-4" cx="25" cy="19.8756" r="1"/><circle class="cls-4" cx="22.1005" cy="22.1005" r="1"/><circle class="cls-4" cx="19.8756" cy="25" r="1"/><circle class="cls-4" cx="18.477" cy="28.3765" r="1"/><circle class="cls-4" cx="18" cy="32" r="1"/><circle class="cls-4" cx="18.477" cy="35.6235" r="1"/><circle class="cls-4" cx="19.8756" cy="39" r="1"/><circle class="cls-4" cx="22.1005" cy="41.8995" r="1"/><circle class="cls-4" cx="25" cy="44.1244" r="1"/><circle class="cls-4" cx="28.3765" cy="45.523" r="1"/><circle class="cls-4" cx="32" cy="46" r="1"/><circle class="cls-4" cx="35.6235" cy="45.523" r="1"/><circle class="cls-4" cx="39" cy="44.1244" r="1"/><circle class="cls-4" cx="41.8995" cy="41.8995" r="1"/><circle class="cls-4" cx="44.1244" cy="39" r="1"/><circle class="cls-4" cx="45.523" cy="35.6235" r="1"/><circle class="cls-4" cx="46" cy="32" r="1"/><circle class="cls-4" cx="45.523" cy="28.3765" r="1"/><circle class="cls-4" cx="44.1244" cy="25" r="1"/><circle class="cls-4" cx="41.8995" cy="22.1005" r="1"/></svg>