<?xml version="1.0" ?><svg data-name="filled outline" id="filled_outline" viewBox="0 0 64 64" xmlns="http://www.w3.org/2000/svg"><defs><style>.cls-1{fill:none;}.cls-1,.cls-2,.cls-3{stroke:#373737;stroke-linecap:round;stroke-linejoin:round;stroke-width:2px;}.cls-2{fill:#efefef;}.cls-3{fill:#ffcb1e;}.cls-4{fill:#373737;}</style></defs><title/><path class="cls-1" d="M36,11a5.9966,5.9966,0,0,1,6-6"/><path class="cls-1" d="M28,11a5.9966,5.9966,0,0,0-6-6"/><path class="cls-2" d="M37.74,35.2936l9.0172,8.949a5.9865,5.9865,0,0,0,9.0253-7.8241A6.9982,6.9982,0,1,0,48.05,25.05"/><path class="cls-2" d="M26.26,35.2936l-9.0172,8.949a5.9865,5.9865,0,0,1-9.0253-7.8241A6.9982,6.9982,0,1,1,15.95,25.05"/><path class="cls-3" d="M38.1664,33.4456a13,13,0,1,0-12.3328,0,14,14,0,1,0,12.3328,0Z"/><path class="cls-4" d="M20.52,38A13.9237,13.9237,0,0,0,18,46H46a13.9237,13.9237,0,0,0-2.52-8Z"/><path class="cls-4" d="M44.1118,53H19.8882a13.9783,13.9783,0,0,0,24.2236,0Z"/></svg>