<?xml version="1.0" ?><svg data-name="filled outline" id="filled_outline" viewBox="0 0 64 64" xmlns="http://www.w3.org/2000/svg"><defs><style>.cls-1{fill:none;}.cls-1,.cls-2,.cls-3,.cls-4,.cls-5,.cls-6{stroke:#373737;stroke-linecap:round;stroke-linejoin:round;stroke-width:2px;}.cls-2{fill:#ff9006;}.cls-3{fill:#ffa70b;}.cls-4{fill:#ffb80f;}.cls-5{fill:#bf6303;}.cls-6{fill:#55c755;}.cls-7{fill:#373737;}</style></defs><title/><line class="cls-1" x1="30" x2="37" y1="19" y2="12"/><path class="cls-2" d="M28,30H19a3,3,0,0,1-3-3h0a3,3,0,0,1,3-3H45a3,3,0,0,1,3,3h0a3,3,0,0,1-3,3H36"/><path class="cls-3" d="M36,30H47a3,3,0,0,1,3,3h0a3,3,0,0,1-3,3H17a3,3,0,0,1-3-3h0a3,3,0,0,1,3-3H28"/><path class="cls-4" d="M20,42H15a3,3,0,0,1-3-3h0a3,3,0,0,1,3-3H49a3,3,0,0,1,3,3h0a3,3,0,0,1-3,3H44"/><path class="cls-3" d="M44,42h3a3,3,0,0,1,3,3h0a3,3,0,0,1-3,3H17a3,3,0,0,1-3-3h0a3,3,0,0,1,3-3h3"/><rect class="cls-4" height="6" rx="3" ry="3" width="24" x="20" y="18"/><rect class="cls-3" height="6" rx="3" ry="3" width="24" x="20" y="54"/><path class="cls-5" d="M24,48V41a8,8,0,0,1,8-8h0a8,8,0,0,1,8,8v7"/><line class="cls-1" x1="9" x2="58" y1="12" y2="12"/><ellipse class="cls-6" cx="13" cy="12" rx="6" ry="3"/><ellipse class="cls-6" cx="52" cy="16" rx="5.5669" ry="2.7835" transform="translate(3.9167 41.4558) rotate(-45)"/><ellipse class="cls-6" cx="33" cy="8" rx="2.7835" ry="5.5669" transform="translate(4.0086 25.6777) rotate(-45)"/><path class="cls-2" d="M39,48h6a3,3,0,0,1,3,3h0a3,3,0,0,1-3,3H19a3,3,0,0,1-3-3h0a3,3,0,0,1,3-3H31"/><circle class="cls-7" cx="35" cy="48" r="1"/></svg>