<?xml version="1.0" ?><svg data-name="filled outline" id="filled_outline" viewBox="0 0 64 64" xmlns="http://www.w3.org/2000/svg"><defs><style>.cls-1{fill:#ffb80f;}.cls-2{fill:#ffa70b;}.cls-2,.cls-3{stroke:#373737;stroke-linecap:round;stroke-linejoin:round;stroke-width:2px;}.cls-3{fill:#ff9006;}.cls-4{fill:#373737;}</style></defs><title/><polygon class="cls-1" points="37 23 27 23 22 32 27 41 37 41 42 32 37 23"/><polyline class="cls-2" points="22 14 27 5 37 5 42 14 37 23 27 23"/><polygon class="cls-3" points="27 59 22 50 27 41 37 41 42 50 37 59 27 59"/><polyline class="cls-2" points="52 32 57 41 52 50 42 50 37 41 42 32"/><polyline class="cls-3" points="50 32 52 32 57 23 52 14 42 14 37 23 42 32"/><polyline class="cls-3" points="23.111 16 22 14 12 14 7 23 12 32 22 32 27 23 25.333 20"/><polyline class="cls-2" points="14 50 12 50 7 41 12 32 22 32 27 41 22 50"/><circle class="cls-4" cx="46" cy="32" r="1"/><circle class="cls-4" cx="18" cy="50" r="1"/></svg>