<?xml version="1.0" ?><svg data-name="filled outline" id="filled_outline" viewBox="0 0 64 64" xmlns="http://www.w3.org/2000/svg"><defs><style>.cls-1{fill:#ffa70b;}.cls-1,.cls-2,.cls-3,.cls-4{stroke:#373737;stroke-linecap:round;stroke-linejoin:round;stroke-width:2px;}.cls-2{fill:#ffb80f;}.cls-3{fill:#ff9006;}.cls-4{fill:#d46e03;}.cls-5{fill:#373737;}</style></defs><title/><path class="cls-1" d="M47,47h6a5,5,0,0,1,5,5h0a5,5,0,0,1-5,5H11a5,5,0,0,1-5-5H6a5,5,0,0,1,5-5H39"/><path class="cls-2" d="M38,47H9a5,5,0,0,1-5-5H4a5,5,0,0,1,5-5H55a5,5,0,0,1,5,5h0a5,5,0,0,1-5,5H47"/><path class="cls-3" d="M25,27H12a5,5,0,0,0-5,5H7a5,5,0,0,0,5,5H52a5,5,0,0,0,5-5h0a5,5,0,0,0-5-5H33"/><path class="cls-1" d="M25,27H17a5,5,0,0,1-5-5h0a5,5,0,0,1,5-5H47a5,5,0,0,1,5,5h0a5,5,0,0,1-5,5H33"/><rect class="cls-2" height="10" rx="5" ry="5" width="30" x="17" y="7"/><path class="cls-4" d="M31.8883,41h.2235A9.8883,9.8883,0,0,1,42,50.8883V57a0,0,0,0,1,0,0H22a0,0,0,0,1,0,0V50.8883A9.8883,9.8883,0,0,1,31.8883,41Z"/><circle class="cls-5" cx="29" cy="27" r="1"/></svg>